<svg id="Layer_2" data-name="Layer 2" xmlns="http://www.w3.org/2000/svg" viewBox="0 0 400 300" width="406" height="306" class="illustration styles_illustrationTablet__1DWOa"><title>PP</title><path d="M193.6,287.12,13.87,180.9C8.15,177.69,3.24,172.42,8.82,169L189.19,65c2.71-1.68,6.82-2.78,9.57-1.18L387.42,173.32c5.72,3.32,6.75,12.6,1,15.93L217.29,287A23.9,23.9,0,0,1,193.6,287.12Z" fill="#17619e"></path><polygon points="49.32 82.78 49.32 178.91 166.11 110.14 166.11 12.79 49.32 82.78" fill="#68e1fd"></polygon><ellipse cx="207.33" cy="219.07" rx="38.68" ry="7.2" fill="#194e72"></ellipse><path d="M58.77,184.76l-.9.61c23.15,13.17,84.46,48.57,128.66,74.14l.86-.66C141.56,232.34,82.14,198,58.77,184.76Z" fill="#68e1fd"></path><path d="M344.69,187.3,223.47,257.6l1,.59,121.33-70.37Z" fill="#68e1fd"></path><ellipse cx="223.47" cy="257.63" rx="5.41" ry="3.42" fill="#68e1fd"></ellipse><ellipse cx="187.38" cy="259.51" rx="5.41" ry="3.42" fill="#68e1fd"></ellipse><ellipse cx="59.47" cy="185.05" rx="5.41" ry="3.42" fill="#68e1fd"></ellipse><ellipse cx="343.84" cy="188.16" rx="5.41" ry="3.42" fill="#68e1fd"></ellipse><path d="M228.08,179.68s5.94.63,7.7,3.79,3.32,8.29,4.46,10.22,2.63-.25,3.06-3.3-1.53-5.95-.34-8.67.08-4.18-2.4-5S233.78,175,229,173" fill="#4e62d4"></path><path d="M242.94,162.4s5.61-2,8.58,0,6.62,6,8.5,7.22,2.25-1.38,1.3-4.31-4-4.67-4.12-7.64-1.76-3.8-4.37-3.46-6.83,1.47-12,1.74" fill="#4e62d4"></path><path d="M175.81,144.42s14.36,29.8,18.7,30.6,31.81,13.4,34.06,11.75,3.45-13.8,2.54-15-28.49-7.94-28.83-8.5-12.72-22-12.72-22Z" fill="#ed9b2f"></path><path d="M179.18,142.36S199.3,164,203.12,166.19c6.86,4,40.87.9,42.41-1.42s.73-10-.54-10.83-34,0-34.54-.41-15-13.9-15-13.9Z" fill="#fbb03b"></path><path d="M206.67,121.12c1.1-.1,2.26-.23,3.39-.45a53.64,53.64,0,0,0,4.77-3.1,7.43,7.43,0,0,1,1.94-1.41,1,1,0,0,1,1.48.55,2.1,2.1,0,0,1-.68,2c-.44.46-.91.9-1.38,1.34a41.1,41.1,0,0,0,5.89-1.06c1.24-.29,1.82,1.61.57,1.9l-1.34.31a23,23,0,0,1,2.51.07c1,.09,1.52,1.67.32,1.94a32.29,32.29,0,0,1-4.92.73q1.67.11,3.36.12c1.27,0,1.35,2,.07,2q-2.36,0-4.71-.21c.55.31,1.09.63,1.62,1,1.08.67.17,2.44-.92,1.76s-2.1-1.25-3.18-1.82l-.13,0q-5.23.57-10.48.93c-1.28.09-1.34-1.9-.07-2l1.61-.12a1.16,1.16,0,0,1,0-.9,1,1,0,0,1-.18-1.72A1,1,0,0,1,206.67,121.12Z" fill="#ffc285"></path><path d="M216.29,121.26c-.34,1.6-.88,3.31-2.55,3.93-.34.13-.55-.39-.21-.52,1.48-.55,1.91-2.09,2.21-3.49C215.81,120.83,216.37,120.91,216.29,121.26Z" fill="#6d320b"></path><path d="M217.93,121.66a42,42,0,0,0,4.71-1.1c.26-.08.42.31.16.39a43,43,0,0,1-4.81,1.12C217.72,122.13,217.67,121.71,217.93,121.66Z" fill="#6d320b"></path><path d="M218.18,123.84a22.41,22.41,0,0,0,5.89-.83c.26-.07.42.32.16.39a22.8,22.8,0,0,1-6,.85C218,124.25,217.91,123.84,218.18,123.84Z" fill="#6d320b"></path><path d="M217,125.82a24.8,24.8,0,0,0,4.88,0c.27,0,.32.39.05.42a25.35,25.35,0,0,1-5,0C216.65,126.2,216.7,125.79,217,125.82Z" fill="#6d320b"></path><path d="M207.59,107.42c-.38-2-.85-3.92-1.32-5.89a39.15,39.15,0,0,0-2.59-8.28c-1.13-.88-3.2-.82-4.44-.41-1.56.51-2.6,1.94-4,2.76-1.82,1.07-3.68,1.23-5.65,1.78a10.72,10.72,0,0,0-5.11,3.46A11.46,11.46,0,0,1,174.33,105c-2.28-.28-4.08-.54-6.32.13-3.47,1-6.21,3.49-6.64,7.2-.39,3.35,1.05,6.57,4.36,7.73a8.31,8.31,0,0,0,5.06-.22c1.54-.43,3.25-.41,4.75-1l.17-.07a35.36,35.36,0,0,1,4.12-1.82c1.87-.5,3.83-.61,5.73-1,2.52-.53,4.36-2,6.32-3.62,2.5-2,4.45-2,7.5-1.79l.54,0a10.64,10.64,0,0,0,5.72-1.71A14,14,0,0,0,207.59,107.42Z" fill="#ee6300"></path><path d="M144.86,118.68c-1-.53-2-1.1-2.94-1.75a53.64,53.64,0,0,1-3.16-4.73,7.43,7.43,0,0,0-1.23-2.06,1,1,0,0,0-1.58-.07,2.1,2.1,0,0,0-.17,2.15c.23.6.48,1.19.74,1.78a41.1,41.1,0,0,1-5-3.29c-1-.75-2.31.76-1.28,1.52l1.11.81a23,23,0,0,0-2.33-.92c-1-.32-2.06.94-1.06,1.66a32.29,32.29,0,0,0,4.23,2.61q-1.58-.56-3.13-1.21c-1.17-.5-2,1.3-.84,1.8q2.17.92,4.41,1.66c-.62.07-1.25.15-1.87.25-1.26.2-1.11,2.18.15,2s2.42-.33,3.64-.42l.11.07q4.58,2.58,9.27,5c1.14.58,2-1.22.84-1.8l-1.44-.74a1.16,1.16,0,0,0,.32-.85,1,1,0,0,0,.84-1.51A1,1,0,0,0,144.86,118.68Z" fill="#ffc285"></path><path d="M136,115c-.32,1.6-.49,3.39.8,4.62.26.25.66-.15.4-.39-1.14-1.09-.93-2.68-.66-4.08C136.57,114.82,136,114.67,136,115Z" fill="#6d320b"></path><path d="M134.29,114.75a42,42,0,0,1-3.9-2.86c-.21-.17-.51.12-.3.3a43,43,0,0,0,4,2.93C134.31,115.26,134.52,114.9,134.29,114.75Z" fill="#6d320b"></path><path d="M133.22,116.65a22.41,22.41,0,0,1-5.09-3.08c-.21-.17-.51.13-.3.3A22.8,22.8,0,0,0,133,117C133.25,117.12,133.46,116.76,133.22,116.65Z" fill="#6d320b"></path><path d="M133.55,118.95A24.8,24.8,0,0,1,129,117c-.24-.13-.45.23-.21.36a25.35,25.35,0,0,0,4.6,1.94C133.69,119.43,133.8,119,133.55,118.95Z" fill="#6d320b"></path><path d="M174.5,115.52,168,117.91a22.41,22.41,0,0,1-16.46,2.16,43.66,43.66,0,0,1-9.54-3.68,20.84,20.84,0,0,0-2.21,6.77,25.61,25.61,0,0,0-.36,3.65c5.72,3.69,17.13,8.14,26.63,6.34,0,0,8.16,12.06,12.49,18.62,0,0,9.9-.8,18.34-11.24C196.91,140.52,178.19,117.16,174.5,115.52Z" fill="#4e62d4"></path><path d="M171.43,117.15s16.33,1.56,40.21,1.68c0,0,2.5,6.41,1.42,10.09,0,0-23,5-33.13-.61" fill="#4e62d4"></path><path d="M163.17,115s1.58,7.17,7,7.53,7.1-8.36,2.48-12.76S162.46,108.45,163.17,115Z" fill="#ffc285"></path><path d="M177.63,116.79a2.19,2.19,0,0,1-2.05.55c-.9-.22-1.34-1.05-1.8-1.78a3.2,3.2,0,0,0-2.72-1.67c-1.4-.07-2.76.51-4.16.24l-.43-.11a2.87,2.87,0,0,0,.56.05c2,0,4.29-1.12,5.19-1.19s1.46,3.29,3.39,3.72.28-8.72-2.61-9.72-9.83,0-10.17,4.82a10.09,10.09,0,0,0,.78.73,5.17,5.17,0,0,0,2.47,1.89c1.56.56,3,0,4.6,0a2.8,2.8,0,0,1,2.55,1.18,6.81,6.81,0,0,0,1.49,1.92,2.59,2.59,0,0,0,3.23-.34C178.15,116.88,177.83,116.61,177.63,116.79Z" fill="#ee6300"></path><polyline points="71.69 98.97 92.93 109.21 103.92 88.27 123.9 98.74 146.15 85.55" fill="#68e1fd" stroke="#2e3192" stroke-miterlimit="10"></polyline><line x1="92.93" y1="109.21" x2="81.21" y2="135.35" fill="#68e1fd" stroke="#2e3192" stroke-miterlimit="10"></line><line x1="123.9" y1="98.74" x2="130.54" y2="73.1" fill="#68e1fd" stroke="#2e3192" stroke-miterlimit="10"></line><polyline points="114.41 119.35 103.92 88.27 88.78 83.6" fill="none" stroke="#2e3192" stroke-miterlimit="10"></polyline><ellipse cx="72.18" cy="99.33" rx="1.93" ry="2.87" fill="#0d517f"></ellipse><ellipse cx="81.21" cy="135.35" rx="1.93" ry="2.87" fill="#0d517f"></ellipse><ellipse cx="88.78" cy="83.6" rx="1.93" ry="2.87" fill="#0d517f"></ellipse><ellipse cx="114.41" cy="119.35" rx="1.93" ry="2.87" fill="#0d517f"></ellipse><ellipse cx="130.54" cy="73.1" rx="1.93" ry="2.87" fill="#0d517f"></ellipse><ellipse cx="146.14" cy="85.55" rx="1.93" ry="2.87" fill="#0d517f"></ellipse><line x1="103.92" y1="88.27" x2="114.41" y2="75.97" fill="none" stroke="#2e3192" stroke-miterlimit="10"></line><ellipse cx="114.41" cy="75.97" rx="1.93" ry="2.87" fill="#0d517f"></ellipse><ellipse cx="103.92" cy="88.27" rx="2.8" ry="4.11" fill="#0d517f"></ellipse><ellipse cx="92.93" cy="109.21" rx="2.8" ry="4.11" fill="#0d517f"></ellipse><ellipse cx="123.9" cy="97.38" rx="2.8" ry="4.11" fill="#0d517f"></ellipse><ellipse cx="329.15" cy="148.27" rx="1.7" ry="1.94" fill="#0d517f"></ellipse><polygon points="233.64 110.13 233.64 14 350.43 82.78 350.43 180.12 233.64 110.13" fill="#68e1fd"></polygon><polyline points="248.59 38.69 248.59 60.34 286.69 83.58 286.69 112.19" fill="#68e1fd" stroke="#2e3192" stroke-miterlimit="10"></polyline><ellipse cx="248.39" cy="38.32" rx="1.7" ry="1.94" fill="#0d517f"></ellipse><ellipse cx="286.69" cy="112.19" rx="1.7" ry="1.94" fill="#0d517f"></ellipse><polyline points="267.64 71.96 267.64 82.43 318.58 112.19 318.58 89.88" fill="none" stroke="#2e3192" stroke-miterlimit="10"></polyline><polyline points="308.38 84.94 308.38 136.12 329.15 148.36" fill="none" stroke="#2e3192" stroke-miterlimit="10"></polyline><line x1="308.02" y1="125.12" x2="329.15" y2="136.81" fill="none" stroke="#2e3192" stroke-miterlimit="10"></line><ellipse cx="308.38" cy="84.93" rx="1.7" ry="1.94" fill="#0d517f"></ellipse><ellipse cx="318.58" cy="89.61" rx="1.7" ry="1.94" fill="#0d517f"></ellipse><ellipse cx="329.15" cy="136.27" rx="1.7" ry="1.94" fill="#0d517f"></ellipse><polyline points="259.7 67.12 259.7 102.39 246.69 95.43" fill="none" stroke="#2e3192" stroke-miterlimit="10"></polyline><ellipse cx="246.04" cy="95.47" rx="1.7" ry="1.94" fill="#0d517f"></ellipse></svg>